<?xml version="1.0" standalone="no"?>
 <!DOCTYPE svg PUBLIC "-//W3C//DTD SVG 1.1//EN" 
 "http://www.w3.org/Graphics/SVG/1.1/DTD/svg11.dtd"> 
<svg
  xmlns:svg="http://www.w3.org/2000/svg"
  xmlns="http://www.w3.org/2000/svg"
  xmlns:xlink="http://www.w3.org/1999/xlink"
  version="1.1"
  width="94.6658mm" height="37.6174mm" viewBox="0.0000 0.0000 94.6658 37.6174">
<title>SVG Image created as RTR-CANSystem-board-F_Mask.svg date 2024/03/11 10:03:17 </title>
  <desc>Image generated by PCBNEW </desc>
<g style="fill:#000000; fill-opacity:1.0000;stroke:#000000; stroke-opacity:1.0000;
stroke-linecap:round; stroke-linejoin:round;"
 transform="translate(0 0) scale(1 1)">
</g>
<g style="fill:#000000; fill-opacity:0.0; 
stroke:#000000; stroke-width:0.0000; stroke-opacity:1; 
stroke-linecap:round; stroke-linejoin:round;">
<g >
</g>
<g style="fill:#000000; fill-opacity:0.0; 
stroke:#000000; stroke-width:0.0000; stroke-opacity:1; 
stroke-linecap:round; stroke-linejoin:round;">
</g>
<g style="fill:#000000; fill-opacity:1.0000; 
stroke:#000000; stroke-width:0.0000; stroke-opacity:1; 
stroke-linecap:round; stroke-linejoin:round;">
<path style="fill:#000000; fill-opacity:1.0000; 
stroke:#000000; stroke-width:0.0000; stroke-opacity:1; 
stroke-linecap:round; stroke-linejoin:round;fill-rule:evenodd;"
d="M 60.8150,29.2482
60.8150,28.2482
63.6150,28.2482
63.6150,29.2482
Z" /> 
<path style="fill:#000000; fill-opacity:1.0000; 
stroke:#000000; stroke-width:0.0000; stroke-opacity:1; 
stroke-linecap:round; stroke-linejoin:round;fill-rule:evenodd;"
d="M 66.6150,29.2482
66.6150,28.2482
69.4150,28.2482
69.4150,29.2482
Z" /> 
<path style="fill:#000000; fill-opacity:1.0000; 
stroke:#000000; stroke-width:0.0000; stroke-opacity:1; 
stroke-linecap:round; stroke-linejoin:round;fill-rule:evenodd;"
d="M 60.8150,33.2482
60.8150,32.2482
63.6150,32.2482
63.6150,33.2482
Z" /> 
<path style="fill:#000000; fill-opacity:1.0000; 
stroke:#000000; stroke-width:0.0000; stroke-opacity:1; 
stroke-linecap:round; stroke-linejoin:round;fill-rule:evenodd;"
d="M 66.6150,33.2482
66.6150,32.2482
69.4150,32.2482
69.4150,33.2482
Z" /> 
</g>
<g >
</g>
<g style="fill:#000000; fill-opacity:1.0000; 
stroke:#000000; stroke-width:0.0000; stroke-opacity:1; 
stroke-linecap:round; stroke-linejoin:round;">
<path style="fill:#000000; fill-opacity:1.0000; 
stroke:#000000; stroke-width:0.0000; stroke-opacity:1; 
stroke-linecap:round; stroke-linejoin:round;fill-rule:evenodd;"
d="M 42.1650,26.7207
42.0693,26.7017
41.9882,26.6475
41.9340,26.5664
41.9150,26.4707
41.9150,25.9458
41.9340,25.8501
41.9882,25.7690
42.0693,25.7148
42.1650,25.6958
43.0650,25.6958
43.1607,25.7148
43.2418,25.7690
43.2960,25.8501
43.3150,25.9458
43.3150,26.4707
43.2960,26.5664
43.2418,26.6475
43.1607,26.7017
43.0650,26.7207
Z" /> 
<path style="fill:#000000; fill-opacity:1.0000; 
stroke:#000000; stroke-width:0.0000; stroke-opacity:1; 
stroke-linecap:round; stroke-linejoin:round;fill-rule:evenodd;"
d="M 42.1650,24.8957
42.0693,24.8767
41.9882,24.8225
41.9340,24.7414
41.9150,24.6457
41.9150,24.1207
41.9340,24.0251
41.9882,23.9440
42.0693,23.8898
42.1650,23.8707
43.0650,23.8707
43.1607,23.8898
43.2418,23.9440
43.2960,24.0251
43.3150,24.1207
43.3150,24.6457
43.2960,24.7414
43.2418,24.8225
43.1607,24.8767
43.0650,24.8957
Z" /> 
</g>
<g >
</g>
<g style="fill:#000000; fill-opacity:1.0000; 
stroke:#000000; stroke-width:0.0000; stroke-opacity:1; 
stroke-linecap:round; stroke-linejoin:round;">
<path style="fill:#000000; fill-opacity:1.0000; 
stroke:#000000; stroke-width:0.0000; stroke-opacity:1; 
stroke-linecap:round; stroke-linejoin:round;fill-rule:evenodd;"
d="M 29.4450,25.7382
27.8450,25.7382
27.8450,24.1382
29.4450,24.1382
Z" /> 
<circle cx="31.1850" cy="24.9383" r="0.8000" /> 
</g>
<g style="fill:#000000; fill-opacity:1.0000; 
stroke:#000000; stroke-width:0.0212; stroke-opacity:1; 
stroke-linecap:round; stroke-linejoin:round;">
</g>
<g style="fill:#000000; fill-opacity:1.0000; 
stroke:#000000; stroke-width:0.0000; stroke-opacity:1; 
stroke-linecap:round; stroke-linejoin:round;">
<circle cx="33.7250" cy="24.9383" r="0.8000" /> 
</g>
<g style="fill:#000000; fill-opacity:1.0000; 
stroke:#000000; stroke-width:0.0212; stroke-opacity:1; 
stroke-linecap:round; stroke-linejoin:round;">
</g>
<g style="fill:#000000; fill-opacity:1.0000; 
stroke:#000000; stroke-width:0.0000; stroke-opacity:1; 
stroke-linecap:round; stroke-linejoin:round;">
<circle cx="36.2650" cy="24.9383" r="0.8000" /> 
</g>
<g style="fill:#000000; fill-opacity:1.0000; 
stroke:#000000; stroke-width:0.0212; stroke-opacity:1; 
stroke-linecap:round; stroke-linejoin:round;">
</g>
<g style="fill:#000000; fill-opacity:1.0000; 
stroke:#000000; stroke-width:0.0000; stroke-opacity:1; 
stroke-linecap:round; stroke-linejoin:round;">
<circle cx="36.2650" cy="17.3182" r="0.8000" /> 
</g>
<g style="fill:#000000; fill-opacity:1.0000; 
stroke:#000000; stroke-width:0.0212; stroke-opacity:1; 
stroke-linecap:round; stroke-linejoin:round;">
</g>
<g style="fill:#000000; fill-opacity:1.0000; 
stroke:#000000; stroke-width:0.0000; stroke-opacity:1; 
stroke-linecap:round; stroke-linejoin:round;">
<circle cx="33.7250" cy="17.3182" r="0.8000" /> 
</g>
<g style="fill:#000000; fill-opacity:1.0000; 
stroke:#000000; stroke-width:0.0212; stroke-opacity:1; 
stroke-linecap:round; stroke-linejoin:round;">
</g>
<g style="fill:#000000; fill-opacity:1.0000; 
stroke:#000000; stroke-width:0.0000; stroke-opacity:1; 
stroke-linecap:round; stroke-linejoin:round;">
<circle cx="31.1850" cy="17.3182" r="0.8000" /> 
</g>
<g style="fill:#000000; fill-opacity:1.0000; 
stroke:#000000; stroke-width:0.0212; stroke-opacity:1; 
stroke-linecap:round; stroke-linejoin:round;">
</g>
<g style="fill:#000000; fill-opacity:1.0000; 
stroke:#000000; stroke-width:0.0000; stroke-opacity:1; 
stroke-linecap:round; stroke-linejoin:round;">
<circle cx="28.6450" cy="17.3182" r="0.8000" /> 
</g>
<g style="fill:#000000; fill-opacity:1.0000; 
stroke:#000000; stroke-width:0.0212; stroke-opacity:1; 
stroke-linecap:round; stroke-linejoin:round;">
</g>
<g >
</g>
<g style="fill:#000000; fill-opacity:1.0000; 
stroke:#000000; stroke-width:0.0212; stroke-opacity:1; 
stroke-linecap:round; stroke-linejoin:round;">
</g>
<g style="fill:#000000; fill-opacity:1.0000; 
stroke:#000000; stroke-width:0.0000; stroke-opacity:1; 
stroke-linecap:round; stroke-linejoin:round;">
<path style="fill:#000000; fill-opacity:1.0000; 
stroke:#000000; stroke-width:0.0000; stroke-opacity:1; 
stroke-linecap:round; stroke-linejoin:round;fill-rule:evenodd;"
d="M 15.5250,34.6782
13.8250,34.6782
13.8250,32.9782
15.5250,32.9782
Z" /> 
<circle cx="17.2150" cy="33.8282" r="0.8500" /> 
<circle cx="19.7550" cy="33.8282" r="0.8500" /> 
<circle cx="22.2950" cy="33.8282" r="0.8500" /> 
<circle cx="24.8350" cy="33.8282" r="0.8500" /> 
<circle cx="27.3750" cy="33.8282" r="0.8500" /> 
<circle cx="29.9150" cy="33.8282" r="0.8500" /> 
</g>
<g >
</g>
<g style="fill:#000000; fill-opacity:1.0000; 
stroke:#000000; stroke-width:0.0000; stroke-opacity:1; 
stroke-linecap:round; stroke-linejoin:round;">
<path style="fill:#000000; fill-opacity:1.0000; 
stroke:#000000; stroke-width:0.0000; stroke-opacity:1; 
stroke-linecap:round; stroke-linejoin:round;fill-rule:evenodd;"
d="M 42.1650,33.6257
42.0693,33.6067
41.9882,33.5525
41.9340,33.4714
41.9150,33.3757
41.9150,32.8507
41.9340,32.7551
41.9882,32.6740
42.0693,32.6198
42.1650,32.6007
43.0650,32.6007
43.1607,32.6198
43.2418,32.6740
43.2960,32.7551
43.3150,32.8507
43.3150,33.3757
43.2960,33.4714
43.2418,33.5525
43.1607,33.6067
43.0650,33.6257
Z" /> 
<path style="fill:#000000; fill-opacity:1.0000; 
stroke:#000000; stroke-width:0.0000; stroke-opacity:1; 
stroke-linecap:round; stroke-linejoin:round;fill-rule:evenodd;"
d="M 42.1650,31.8007
42.0693,31.7817
41.9882,31.7275
41.9340,31.6464
41.9150,31.5507
41.9150,31.0257
41.9340,30.9301
41.9882,30.8490
42.0693,30.7948
42.1650,30.7757
43.0650,30.7757
43.1607,30.7948
43.2418,30.8490
43.2960,30.9301
43.3150,31.0257
43.3150,31.5507
43.2960,31.6464
43.2418,31.7275
43.1607,31.7817
43.0650,31.8007
Z" /> 
</g>
<g >
</g>
<g style="fill:#000000; fill-opacity:1.0000; 
stroke:#000000; stroke-width:0.0000; stroke-opacity:1; 
stroke-linecap:round; stroke-linejoin:round;">
<path style="fill:#000000; fill-opacity:1.0000; 
stroke:#000000; stroke-width:0.0000; stroke-opacity:1; 
stroke-linecap:round; stroke-linejoin:round;fill-rule:evenodd;"
d="M 15.5250,9.2782
13.8250,9.2782
13.8250,7.5782
15.5250,7.5782
Z" /> 
<circle cx="17.2150" cy="8.4283" r="0.8500" /> 
<circle cx="19.7550" cy="8.4283" r="0.8500" /> 
<circle cx="22.2950" cy="8.4283" r="0.8500" /> 
<circle cx="24.8350" cy="8.4283" r="0.8500" /> 
<circle cx="27.3750" cy="8.4283" r="0.8500" /> 
<circle cx="29.9150" cy="8.4283" r="0.8500" /> 
<circle cx="32.4550" cy="8.4283" r="0.8500" /> 
</g>
<g >
</g>
<g style="fill:#000000; fill-opacity:1.0000; 
stroke:#000000; stroke-width:0.0000; stroke-opacity:1; 
stroke-linecap:round; stroke-linejoin:round;">
<circle cx="76.3550" cy="13.7482" r="0.5500" /> 
</g>
<g style="fill:#000000; fill-opacity:1.0000; 
stroke:#000000; stroke-width:0.0212; stroke-opacity:1; 
stroke-linecap:round; stroke-linejoin:round;">
</g>
<g style="fill:#000000; fill-opacity:1.0000; 
stroke:#000000; stroke-width:0.0000; stroke-opacity:1; 
stroke-linecap:round; stroke-linejoin:round;">
<circle cx="76.3550" cy="18.3483" r="0.5500" /> 
</g>
<g style="fill:#000000; fill-opacity:1.0000; 
stroke:#000000; stroke-width:0.0212; stroke-opacity:1; 
stroke-linecap:round; stroke-linejoin:round;">
</g>
<g style="fill:#000000; fill-opacity:1.0000; 
stroke:#000000; stroke-width:0.0000; stroke-opacity:1; 
stroke-linecap:round; stroke-linejoin:round;">
<path style="fill:#000000; fill-opacity:1.0000; 
stroke:#000000; stroke-width:0.0000; stroke-opacity:1; 
stroke-linecap:round; stroke-linejoin:round;fill-rule:evenodd;"
d="M 72.3550,13.0983
72.3550,11.9982
74.8550,11.9982
74.8550,13.0983
Z" /> 
<path style="fill:#000000; fill-opacity:1.0000; 
stroke:#000000; stroke-width:0.0000; stroke-opacity:1; 
stroke-linecap:round; stroke-linejoin:round;fill-rule:evenodd;"
d="M 72.3550,15.5983
72.3550,14.4982
74.8550,14.4982
74.8550,15.5983
Z" /> 
<path style="fill:#000000; fill-opacity:1.0000; 
stroke:#000000; stroke-width:0.0000; stroke-opacity:1; 
stroke-linecap:round; stroke-linejoin:round;fill-rule:evenodd;"
d="M 72.3550,17.5983
72.3550,16.4982
74.8550,16.4982
74.8550,17.5983
Z" /> 
<path style="fill:#000000; fill-opacity:1.0000; 
stroke:#000000; stroke-width:0.0000; stroke-opacity:1; 
stroke-linecap:round; stroke-linejoin:round;fill-rule:evenodd;"
d="M 72.3550,20.0983
72.3550,18.9982
74.8550,18.9982
74.8550,20.0983
Z" /> 
</g>
<g style="fill:#000000; fill-opacity:1.0000; 
stroke:#000000; stroke-width:1.9000; stroke-opacity:1; 
stroke-linecap:round; stroke-linejoin:round;">
</g>
<g style="fill:#000000; fill-opacity:0.0; 
stroke:#000000; stroke-width:1.9000; stroke-opacity:1; 
stroke-linecap:round; stroke-linejoin:round;">
<path d="M75.5550 10.3483
L77.1550 10.3483
" />
<path d="M75.5550 21.7482
L77.1550 21.7482
" />
</g>
<g >
</g>
<g style="fill:#000000; fill-opacity:0.0; 
stroke:#000000; stroke-width:1.9000; stroke-opacity:1; 
stroke-linecap:round; stroke-linejoin:round;">
</g>
<g style="fill:#000000; fill-opacity:0.0; 
stroke:#000000; stroke-width:0.0000; stroke-opacity:1; 
stroke-linecap:round; stroke-linejoin:round;">
</g>
<g style="fill:#000000; fill-opacity:1.0000; 
stroke:#000000; stroke-width:0.0000; stroke-opacity:1; 
stroke-linecap:round; stroke-linejoin:round;">
<path style="fill:#000000; fill-opacity:1.0000; 
stroke:#000000; stroke-width:0.0000; stroke-opacity:1; 
stroke-linecap:round; stroke-linejoin:round;fill-rule:evenodd;"
d="M 57.9850,32.2482
57.9850,33.2482
55.1850,33.2482
55.1850,32.2482
Z" /> 
<path style="fill:#000000; fill-opacity:1.0000; 
stroke:#000000; stroke-width:0.0000; stroke-opacity:1; 
stroke-linecap:round; stroke-linejoin:round;fill-rule:evenodd;"
d="M 52.1850,32.2482
52.1850,33.2482
49.3850,33.2482
49.3850,32.2482
Z" /> 
<path style="fill:#000000; fill-opacity:1.0000; 
stroke:#000000; stroke-width:0.0000; stroke-opacity:1; 
stroke-linecap:round; stroke-linejoin:round;fill-rule:evenodd;"
d="M 57.9850,28.2482
57.9850,29.2482
55.1850,29.2482
55.1850,28.2482
Z" /> 
<path style="fill:#000000; fill-opacity:1.0000; 
stroke:#000000; stroke-width:0.0000; stroke-opacity:1; 
stroke-linecap:round; stroke-linejoin:round;fill-rule:evenodd;"
d="M 52.1850,28.2482
52.1850,29.2482
49.3850,29.2482
49.3850,28.2482
Z" /> 
</g>
<g >
</g>
<g style="fill:#000000; fill-opacity:1.0000; 
stroke:#000000; stroke-width:0.0000; stroke-opacity:1; 
stroke-linecap:round; stroke-linejoin:round;">
<path style="fill:#000000; fill-opacity:1.0000; 
stroke:#000000; stroke-width:0.0000; stroke-opacity:1; 
stroke-linecap:round; stroke-linejoin:round;fill-rule:evenodd;"
d="M 1.1500,23.9882
9.1500,23.9882
9.1500,25.8882
1.1500,25.8882
Z" /> 
<path style="fill:#000000; fill-opacity:1.0000; 
stroke:#000000; stroke-width:0.0000; stroke-opacity:1; 
stroke-linecap:round; stroke-linejoin:round;fill-rule:evenodd;"
d="M 1.6500,21.4282
9.1500,21.4282
9.1500,23.4282
1.6500,23.4282
Z" /> 
<path style="fill:#000000; fill-opacity:1.0000; 
stroke:#000000; stroke-width:0.0000; stroke-opacity:1; 
stroke-linecap:round; stroke-linejoin:round;fill-rule:evenodd;"
d="M 1.6500,18.8283
9.1500,18.8283
9.1500,20.8283
1.6500,20.8283
Z" /> 
<path style="fill:#000000; fill-opacity:1.0000; 
stroke:#000000; stroke-width:0.0000; stroke-opacity:1; 
stroke-linecap:round; stroke-linejoin:round;fill-rule:evenodd;"
d="M 1.1500,16.3682
9.1500,16.3682
9.1500,18.2682
1.1500,18.2682
Z" /> 
</g>
<g >
</g>
<g style="fill:#000000; fill-opacity:1.0000; 
stroke:#000000; stroke-width:0.0000; stroke-opacity:1; 
stroke-linecap:round; stroke-linejoin:round;">
<path style="fill:#000000; fill-opacity:1.0000; 
stroke:#000000; stroke-width:0.0000; stroke-opacity:1; 
stroke-linecap:round; stroke-linejoin:round;fill-rule:evenodd;"
d="M 22.5725,20.8908
22.5906,20.7999
22.6421,20.7228
22.7191,20.6713
22.8100,20.6532
23.4100,20.6532
23.5009,20.6713
23.5779,20.7228
23.6294,20.7999
23.6475,20.8908
23.6475,21.3657
23.6294,21.4566
23.5779,21.5337
23.5009,21.5852
23.4100,21.6032
22.8100,21.6032
22.7191,21.5852
22.6421,21.5337
22.5906,21.4566
22.5725,21.3657
Z" /> 
<path style="fill:#000000; fill-opacity:1.0000; 
stroke:#000000; stroke-width:0.0000; stroke-opacity:1; 
stroke-linecap:round; stroke-linejoin:round;fill-rule:evenodd;"
d="M 24.2975,20.8908
24.3156,20.7999
24.3671,20.7228
24.4441,20.6713
24.5350,20.6532
25.1350,20.6532
25.2259,20.6713
25.3029,20.7228
25.3544,20.7999
25.3725,20.8908
25.3725,21.3657
25.3544,21.4566
25.3029,21.5337
25.2259,21.5852
25.1350,21.6032
24.5350,21.6032
24.4441,21.5852
24.3671,21.5337
24.3156,21.4566
24.2975,21.3657
Z" /> 
</g>
<g >
</g>
<g style="fill:#000000; fill-opacity:1.0000; 
stroke:#000000; stroke-width:0.0000; stroke-opacity:1; 
stroke-linecap:round; stroke-linejoin:round;">
<path style="fill:#000000; fill-opacity:1.0000; 
stroke:#000000; stroke-width:0.0000; stroke-opacity:1; 
stroke-linecap:round; stroke-linejoin:round;fill-rule:evenodd;"
d="M 75.0070,31.5882
74.9992,31.6273
74.9771,31.6604
74.9440,31.6825
74.9050,31.6902
73.5550,31.6902
73.5160,31.6825
73.4829,31.6604
73.4608,31.6273
73.4530,31.5882
73.4530,31.1883
73.4608,31.1492
73.4829,31.1161
73.5160,31.0940
73.5550,31.0862
74.9050,31.0862
74.9440,31.0940
74.9771,31.1161
74.9992,31.1492
75.0070,31.1883
Z" /> 
<path style="fill:#000000; fill-opacity:1.0000; 
stroke:#000000; stroke-width:0.0000; stroke-opacity:1; 
stroke-linecap:round; stroke-linejoin:round;fill-rule:evenodd;"
d="M 75.0070,30.9383
74.9992,30.9773
74.9771,31.0104
74.9440,31.0325
74.9050,31.0403
73.5550,31.0403
73.5160,31.0325
73.4829,31.0104
73.4608,30.9773
73.4530,30.9383
73.4530,30.5382
73.4608,30.4992
73.4829,30.4661
73.5160,30.4440
73.5550,30.4362
74.9050,30.4362
74.9440,30.4440
74.9771,30.4661
74.9992,30.4992
75.0070,30.5382
Z" /> 
<path style="fill:#000000; fill-opacity:1.0000; 
stroke:#000000; stroke-width:0.0000; stroke-opacity:1; 
stroke-linecap:round; stroke-linejoin:round;fill-rule:evenodd;"
d="M 75.0070,30.2882
74.9992,30.3273
74.9771,30.3604
74.9440,30.3825
74.9050,30.3902
73.5550,30.3902
73.5160,30.3825
73.4829,30.3604
73.4608,30.3273
73.4530,30.2882
73.4530,29.8882
73.4608,29.8492
73.4829,29.8161
73.5160,29.7940
73.5550,29.7862
74.9050,29.7862
74.9440,29.7940
74.9771,29.8161
74.9992,29.8492
75.0070,29.8882
Z" /> 
<path style="fill:#000000; fill-opacity:1.0000; 
stroke:#000000; stroke-width:0.0000; stroke-opacity:1; 
stroke-linecap:round; stroke-linejoin:round;fill-rule:evenodd;"
d="M 75.0070,29.6382
74.9992,29.6773
74.9771,29.7104
74.9440,29.7325
74.9050,29.7402
73.5550,29.7402
73.5160,29.7325
73.4829,29.7104
73.4608,29.6773
73.4530,29.6382
73.4530,29.2382
73.4608,29.1992
73.4829,29.1661
73.5160,29.1440
73.5550,29.1363
74.9050,29.1363
74.9440,29.1440
74.9771,29.1661
74.9992,29.1992
75.0070,29.2382
Z" /> 
<path style="fill:#000000; fill-opacity:1.0000; 
stroke:#000000; stroke-width:0.0000; stroke-opacity:1; 
stroke-linecap:round; stroke-linejoin:round;fill-rule:evenodd;"
d="M 75.0070,28.9882
74.9992,29.0273
74.9771,29.0604
74.9440,29.0825
74.9050,29.0902
73.5550,29.0902
73.5160,29.0825
73.4829,29.0604
73.4608,29.0273
73.4530,28.9882
73.4530,28.5882
73.4608,28.5492
73.4829,28.5161
73.5160,28.4940
73.5550,28.4862
74.9050,28.4862
74.9440,28.4940
74.9771,28.5161
74.9992,28.5492
75.0070,28.5882
Z" /> 
<path style="fill:#000000; fill-opacity:1.0000; 
stroke:#000000; stroke-width:0.0000; stroke-opacity:1; 
stroke-linecap:round; stroke-linejoin:round;fill-rule:evenodd;"
d="M 75.2570,34.2383
75.2492,34.2773
75.2271,34.3104
75.1940,34.3325
75.1550,34.3402
73.5550,34.3402
73.5160,34.3325
73.4829,34.3104
73.4608,34.2773
73.4530,34.2383
73.4530,32.1382
73.4608,32.0992
73.4829,32.0661
73.5160,32.0440
73.5550,32.0362
75.1550,32.0362
75.1940,32.0440
75.2271,32.0661
75.2492,32.0992
75.2570,32.1382
Z" /> 
<path style="fill:#000000; fill-opacity:1.0000; 
stroke:#000000; stroke-width:0.0000; stroke-opacity:1; 
stroke-linecap:round; stroke-linejoin:round;fill-rule:evenodd;"
d="M 75.9550,35.0902
75.9160,35.0825
75.8829,35.0604
75.8608,35.0273
75.8530,34.9883
75.8530,33.1882
75.8608,33.1492
75.8829,33.1161
75.9160,33.0940
75.9550,33.0862
77.8550,33.0862
77.8940,33.0940
77.9271,33.1161
77.9492,33.1492
77.9570,33.1882
77.9570,34.9883
77.9492,35.0273
77.9271,35.0604
77.8940,35.0825
77.8550,35.0902
Z" /> 
<path style="fill:#000000; fill-opacity:1.0000; 
stroke:#000000; stroke-width:0.0000; stroke-opacity:1; 
stroke-linecap:round; stroke-linejoin:round;fill-rule:evenodd;"
d="M 75.9550,32.3402
75.9160,32.3325
75.8829,32.3104
75.8608,32.2773
75.8530,32.2383
75.8530,30.3382
75.8608,30.2992
75.8829,30.2661
75.9160,30.2440
75.9550,30.2362
77.8550,30.2362
77.8940,30.2440
77.9271,30.2661
77.9492,30.2992
77.9570,30.3382
77.9570,32.2383
77.9492,32.2773
77.9271,32.3104
77.8940,32.3325
77.8550,32.3402
Z" /> 
<path style="fill:#000000; fill-opacity:1.0000; 
stroke:#000000; stroke-width:0.0000; stroke-opacity:1; 
stroke-linecap:round; stroke-linejoin:round;fill-rule:evenodd;"
d="M 75.9550,29.9402
75.9160,29.9325
75.8829,29.9104
75.8608,29.8773
75.8530,29.8382
75.8530,27.9383
75.8608,27.8992
75.8829,27.8661
75.9160,27.8440
75.9550,27.8362
77.8550,27.8362
77.8940,27.8440
77.9271,27.8661
77.9492,27.8992
77.9570,27.9383
77.9570,29.8382
77.9492,29.8773
77.9271,29.9104
77.8940,29.9325
77.8550,29.9402
Z" /> 
<path style="fill:#000000; fill-opacity:1.0000; 
stroke:#000000; stroke-width:0.0000; stroke-opacity:1; 
stroke-linecap:round; stroke-linejoin:round;fill-rule:evenodd;"
d="M 75.9550,27.0902
75.9160,27.0825
75.8829,27.0604
75.8608,27.0273
75.8530,26.9882
75.8530,25.1883
75.8608,25.1492
75.8829,25.1161
75.9160,25.0940
75.9550,25.0862
77.8550,25.0862
77.8940,25.0940
77.9271,25.1161
77.9492,25.1492
77.9570,25.1883
77.9570,26.9882
77.9492,27.0273
77.9271,27.0604
77.8940,27.0825
77.8550,27.0902
Z" /> 
<path style="fill:#000000; fill-opacity:1.0000; 
stroke:#000000; stroke-width:0.0000; stroke-opacity:1; 
stroke-linecap:round; stroke-linejoin:round;fill-rule:evenodd;"
d="M 75.2570,28.0382
75.2492,28.0773
75.2271,28.1104
75.1940,28.1325
75.1550,28.1402
73.5550,28.1402
73.5160,28.1325
73.4829,28.1104
73.4608,28.0773
73.4530,28.0382
73.4530,25.9383
73.4608,25.8992
73.4829,25.8661
73.5160,25.8440
73.5550,25.8362
75.1550,25.8362
75.1940,25.8440
75.2271,25.8661
75.2492,25.8992
75.2570,25.9383
Z" /> 
</g>
<g >
</g>
<g style="fill:#000000; fill-opacity:1.0000; 
stroke:#000000; stroke-width:0.0000; stroke-opacity:1; 
stroke-linecap:round; stroke-linejoin:round;">
<path style="fill:#000000; fill-opacity:1.0000; 
stroke:#000000; stroke-width:0.0000; stroke-opacity:1; 
stroke-linecap:round; stroke-linejoin:round;fill-rule:evenodd;"
d="M 44.6975,11.4597
44.6794,11.5506
44.6279,11.6277
44.5509,11.6792
44.4600,11.6972
43.8600,11.6972
43.7691,11.6792
43.6921,11.6277
43.6406,11.5506
43.6225,11.4597
43.6225,10.9848
43.6406,10.8939
43.6921,10.8168
43.7691,10.7653
43.8600,10.7472
44.4600,10.7472
44.5509,10.7653
44.6279,10.8168
44.6794,10.8939
44.6975,10.9848
Z" /> 
<path style="fill:#000000; fill-opacity:1.0000; 
stroke:#000000; stroke-width:0.0000; stroke-opacity:1; 
stroke-linecap:round; stroke-linejoin:round;fill-rule:evenodd;"
d="M 42.9725,11.4597
42.9544,11.5506
42.9029,11.6277
42.8259,11.6792
42.7350,11.6972
42.1350,11.6972
42.0441,11.6792
41.9671,11.6277
41.9156,11.5506
41.8975,11.4597
41.8975,10.9848
41.9156,10.8939
41.9671,10.8168
42.0441,10.7653
42.1350,10.7472
42.7350,10.7472
42.8259,10.7653
42.9029,10.8168
42.9544,10.8939
42.9725,10.9848
Z" /> 
</g>
<g >
</g>
<g style="fill:#000000; fill-opacity:1.0000; 
stroke:#000000; stroke-width:0.0000; stroke-opacity:1; 
stroke-linecap:round; stroke-linejoin:round;">
<path style="fill:#000000; fill-opacity:1.0000; 
stroke:#000000; stroke-width:0.0000; stroke-opacity:1; 
stroke-linecap:round; stroke-linejoin:round;fill-rule:evenodd;"
d="M 33.8550,28.9857
33.8369,29.0766
33.7854,29.1537
33.7084,29.2052
33.6175,29.2233
33.0175,29.2233
32.9266,29.2052
32.8496,29.1537
32.7981,29.0766
32.7800,28.9857
32.7800,28.5107
32.7981,28.4199
32.8496,28.3428
32.9266,28.2913
33.0175,28.2732
33.6175,28.2732
33.7084,28.2913
33.7854,28.3428
33.8369,28.4199
33.8550,28.5107
Z" /> 
<path style="fill:#000000; fill-opacity:1.0000; 
stroke:#000000; stroke-width:0.0000; stroke-opacity:1; 
stroke-linecap:round; stroke-linejoin:round;fill-rule:evenodd;"
d="M 32.1300,28.9857
32.1119,29.0766
32.0604,29.1537
31.9834,29.2052
31.8925,29.2233
31.2925,29.2233
31.2016,29.2052
31.1246,29.1537
31.0731,29.0766
31.0550,28.9857
31.0550,28.5107
31.0731,28.4199
31.1246,28.3428
31.2016,28.2913
31.2925,28.2732
31.8925,28.2732
31.9834,28.2913
32.0604,28.3428
32.1119,28.4199
32.1300,28.5107
Z" /> 
</g>
<g >
</g>
<g style="fill:#000000; fill-opacity:1.0000; 
stroke:#000000; stroke-width:0.0000; stroke-opacity:1; 
stroke-linecap:round; stroke-linejoin:round;">
<circle cx="15.9450" cy="24.9383" r="0.7000" /> 
</g>
<g style="fill:#000000; fill-opacity:1.0000; 
stroke:#000000; stroke-width:0.0212; stroke-opacity:1; 
stroke-linecap:round; stroke-linejoin:round;">
</g>
<g style="fill:#000000; fill-opacity:1.0000; 
stroke:#000000; stroke-width:0.0000; stroke-opacity:1; 
stroke-linecap:round; stroke-linejoin:round;">
<circle cx="23.5650" cy="24.9383" r="0.7000" /> 
</g>
<g >
</g>
<g style="fill:#000000; fill-opacity:1.0000; 
stroke:#000000; stroke-width:0.0000; stroke-opacity:1; 
stroke-linecap:round; stroke-linejoin:round;">
<path style="fill:#000000; fill-opacity:1.0000; 
stroke:#000000; stroke-width:0.0000; stroke-opacity:1; 
stroke-linecap:round; stroke-linejoin:round;fill-rule:evenodd;"
d="M 14.4975,20.8908
14.5156,20.7999
14.5671,20.7228
14.6441,20.6713
14.7350,20.6532
15.3350,20.6532
15.4259,20.6713
15.5029,20.7228
15.5544,20.7999
15.5725,20.8908
15.5725,21.3657
15.5544,21.4566
15.5029,21.5337
15.4259,21.5852
15.3350,21.6032
14.7350,21.6032
14.6441,21.5852
14.5671,21.5337
14.5156,21.4566
14.4975,21.3657
Z" /> 
<path style="fill:#000000; fill-opacity:1.0000; 
stroke:#000000; stroke-width:0.0000; stroke-opacity:1; 
stroke-linecap:round; stroke-linejoin:round;fill-rule:evenodd;"
d="M 16.2225,20.8908
16.2406,20.7999
16.2921,20.7228
16.3691,20.6713
16.4600,20.6532
17.0600,20.6532
17.1509,20.6713
17.2279,20.7228
17.2794,20.7999
17.2975,20.8908
17.2975,21.3657
17.2794,21.4566
17.2279,21.5337
17.1509,21.5852
17.0600,21.6032
16.4600,21.6032
16.3691,21.5852
16.2921,21.5337
16.2406,21.4566
16.2225,21.3657
Z" /> 
</g>
<g >
</g>
<g style="fill:#000000; fill-opacity:1.0000; 
stroke:#000000; stroke-width:0.0000; stroke-opacity:1; 
stroke-linecap:round; stroke-linejoin:round;">
<path style="fill:#000000; fill-opacity:1.0000; 
stroke:#000000; stroke-width:0.0000; stroke-opacity:1; 
stroke-linecap:round; stroke-linejoin:round;fill-rule:evenodd;"
d="M 24.5650,18.4183
24.5460,18.5139
24.4918,18.5950
24.4107,18.6492
24.3150,18.6683
22.6150,18.6683
22.5193,18.6492
22.4382,18.5950
22.3840,18.5139
22.3650,18.4183
22.3650,17.7182
22.3840,17.6226
22.4382,17.5415
22.5193,17.4873
22.6150,17.4682
24.3150,17.4682
24.4107,17.4873
24.4918,17.5415
24.5460,17.6226
24.5650,17.7182
Z" /> 
<path style="fill:#000000; fill-opacity:1.0000; 
stroke:#000000; stroke-width:0.0000; stroke-opacity:1; 
stroke-linecap:round; stroke-linejoin:round;fill-rule:evenodd;"
d="M 20.3650,18.4383
20.3460,18.5339
20.2918,18.6150
20.2107,18.6692
20.1150,18.6882
14.2150,18.6883
14.1193,18.6692
14.0382,18.6150
13.9840,18.5339
13.9650,18.4383
13.9650,13.1382
13.9840,13.0426
14.0382,12.9615
14.1193,12.9073
14.2150,12.8883
20.1150,12.8882
20.2107,12.9073
20.2918,12.9615
20.3460,13.0426
20.3650,13.1382
Z" /> 
<path style="fill:#000000; fill-opacity:1.0000; 
stroke:#000000; stroke-width:0.0000; stroke-opacity:1; 
stroke-linecap:round; stroke-linejoin:round;fill-rule:evenodd;"
d="M 24.5650,13.8582
24.5460,13.9539
24.4918,14.0350
24.4107,14.0892
24.3150,14.1082
22.6150,14.1082
22.5193,14.0892
22.4382,14.0350
22.3840,13.9539
22.3650,13.8582
22.3650,13.1582
22.3840,13.0626
22.4382,12.9815
22.5193,12.9273
22.6150,12.9082
24.3150,12.9082
24.4107,12.9273
24.4918,12.9815
24.5460,13.0626
24.5650,13.1582
Z" /> 
</g>
<g >
</g>
<g style="fill:#000000; fill-opacity:1.0000; 
stroke:#000000; stroke-width:0.0000; stroke-opacity:1; 
stroke-linecap:round; stroke-linejoin:round;">
<path style="fill:#000000; fill-opacity:1.0000; 
stroke:#000000; stroke-width:0.0000; stroke-opacity:1; 
stroke-linecap:round; stroke-linejoin:round;fill-rule:evenodd;"
d="M 36.8025,13.7457
36.7844,13.8366
36.7329,13.9137
36.6559,13.9652
36.5650,13.9832
35.9650,13.9832
35.8741,13.9652
35.7971,13.9137
35.7456,13.8366
35.7275,13.7457
35.7275,13.2707
35.7456,13.1799
35.7971,13.1028
35.8741,13.0513
35.9650,13.0332
36.5650,13.0332
36.6559,13.0513
36.7329,13.1028
36.7844,13.1799
36.8025,13.2707
Z" /> 
<path style="fill:#000000; fill-opacity:1.0000; 
stroke:#000000; stroke-width:0.0000; stroke-opacity:1; 
stroke-linecap:round; stroke-linejoin:round;fill-rule:evenodd;"
d="M 35.0775,13.7457
35.0594,13.8366
35.0079,13.9137
34.9309,13.9652
34.8400,13.9832
34.2400,13.9832
34.1491,13.9652
34.0721,13.9137
34.0206,13.8366
34.0025,13.7457
34.0025,13.2707
34.0206,13.1799
34.0721,13.1028
34.1491,13.0513
34.2400,13.0332
34.8400,13.0332
34.9309,13.0513
35.0079,13.1028
35.0594,13.1799
35.0775,13.2707
Z" /> 
</g>
<g >
</g>
<g style="fill:#000000; fill-opacity:1.0000; 
stroke:#000000; stroke-width:0.0000; stroke-opacity:1; 
stroke-linecap:round; stroke-linejoin:round;">
<path style="fill:#000000; fill-opacity:1.0000; 
stroke:#000000; stroke-width:0.0000; stroke-opacity:1; 
stroke-linecap:round; stroke-linejoin:round;fill-rule:evenodd;"
d="M 45.6750,10.1482
45.6750,9.2482
47.1750,9.2482
47.1750,10.1482
Z" /> 
<path style="fill:#000000; fill-opacity:1.0000; 
stroke:#000000; stroke-width:0.0000; stroke-opacity:1; 
stroke-linecap:round; stroke-linejoin:round;fill-rule:evenodd;"
d="M 45.6750,11.6482
45.6750,10.7482
47.1750,10.7482
47.1750,11.6482
Z" /> 
<path style="fill:#000000; fill-opacity:1.0000; 
stroke:#000000; stroke-width:0.0000; stroke-opacity:1; 
stroke-linecap:round; stroke-linejoin:round;fill-rule:evenodd;"
d="M 45.6750,13.1482
45.6750,12.2482
47.1750,12.2482
47.1750,13.1482
Z" /> 
<path style="fill:#000000; fill-opacity:1.0000; 
stroke:#000000; stroke-width:0.0000; stroke-opacity:1; 
stroke-linecap:round; stroke-linejoin:round;fill-rule:evenodd;"
d="M 45.6750,14.6482
45.6750,13.7482
47.1750,13.7482
47.1750,14.6482
Z" /> 
<path style="fill:#000000; fill-opacity:1.0000; 
stroke:#000000; stroke-width:0.0000; stroke-opacity:1; 
stroke-linecap:round; stroke-linejoin:round;fill-rule:evenodd;"
d="M 45.6750,16.1483
45.6750,15.2482
47.1750,15.2482
47.1750,16.1483
Z" /> 
<path style="fill:#000000; fill-opacity:1.0000; 
stroke:#000000; stroke-width:0.0000; stroke-opacity:1; 
stroke-linecap:round; stroke-linejoin:round;fill-rule:evenodd;"
d="M 45.6750,17.6483
45.6750,16.7482
47.1750,16.7482
47.1750,17.6483
Z" /> 
<path style="fill:#000000; fill-opacity:1.0000; 
stroke:#000000; stroke-width:0.0000; stroke-opacity:1; 
stroke-linecap:round; stroke-linejoin:round;fill-rule:evenodd;"
d="M 45.6750,19.1483
45.6750,18.2482
47.1750,18.2482
47.1750,19.1483
Z" /> 
<path style="fill:#000000; fill-opacity:1.0000; 
stroke:#000000; stroke-width:0.0000; stroke-opacity:1; 
stroke-linecap:round; stroke-linejoin:round;fill-rule:evenodd;"
d="M 45.6750,20.6482
45.6750,19.7482
47.1750,19.7482
47.1750,20.6482
Z" /> 
<path style="fill:#000000; fill-opacity:1.0000; 
stroke:#000000; stroke-width:0.0000; stroke-opacity:1; 
stroke-linecap:round; stroke-linejoin:round;fill-rule:evenodd;"
d="M 45.6750,22.1482
45.6750,21.2482
47.1750,21.2482
47.1750,22.1482
Z" /> 
<path style="fill:#000000; fill-opacity:1.0000; 
stroke:#000000; stroke-width:0.0000; stroke-opacity:1; 
stroke-linecap:round; stroke-linejoin:round;fill-rule:evenodd;"
d="M 64.6750,21.2482
64.6750,22.1482
63.1750,22.1482
63.1750,21.2482
Z" /> 
<path style="fill:#000000; fill-opacity:1.0000; 
stroke:#000000; stroke-width:0.0000; stroke-opacity:1; 
stroke-linecap:round; stroke-linejoin:round;fill-rule:evenodd;"
d="M 64.6750,19.7482
64.6750,20.6482
63.1750,20.6482
63.1750,19.7482
Z" /> 
<path style="fill:#000000; fill-opacity:1.0000; 
stroke:#000000; stroke-width:0.0000; stroke-opacity:1; 
stroke-linecap:round; stroke-linejoin:round;fill-rule:evenodd;"
d="M 64.6750,18.2482
64.6750,19.1483
63.1750,19.1483
63.1750,18.2482
Z" /> 
<path style="fill:#000000; fill-opacity:1.0000; 
stroke:#000000; stroke-width:0.0000; stroke-opacity:1; 
stroke-linecap:round; stroke-linejoin:round;fill-rule:evenodd;"
d="M 64.6750,16.7482
64.6750,17.6483
63.1750,17.6483
63.1750,16.7482
Z" /> 
<path style="fill:#000000; fill-opacity:1.0000; 
stroke:#000000; stroke-width:0.0000; stroke-opacity:1; 
stroke-linecap:round; stroke-linejoin:round;fill-rule:evenodd;"
d="M 64.6750,15.2482
64.6750,16.1483
63.1750,16.1483
63.1750,15.2482
Z" /> 
<path style="fill:#000000; fill-opacity:1.0000; 
stroke:#000000; stroke-width:0.0000; stroke-opacity:1; 
stroke-linecap:round; stroke-linejoin:round;fill-rule:evenodd;"
d="M 64.6750,13.7482
64.6750,14.6482
63.1750,14.6482
63.1750,13.7482
Z" /> 
<path style="fill:#000000; fill-opacity:1.0000; 
stroke:#000000; stroke-width:0.0000; stroke-opacity:1; 
stroke-linecap:round; stroke-linejoin:round;fill-rule:evenodd;"
d="M 64.6750,12.2482
64.6750,13.1482
63.1750,13.1482
63.1750,12.2482
Z" /> 
<path style="fill:#000000; fill-opacity:1.0000; 
stroke:#000000; stroke-width:0.0000; stroke-opacity:1; 
stroke-linecap:round; stroke-linejoin:round;fill-rule:evenodd;"
d="M 64.6750,10.7482
64.6750,11.6482
63.1750,11.6482
63.1750,10.7482
Z" /> 
<path style="fill:#000000; fill-opacity:1.0000; 
stroke:#000000; stroke-width:0.0000; stroke-opacity:1; 
stroke-linecap:round; stroke-linejoin:round;fill-rule:evenodd;"
d="M 64.6750,9.2482
64.6750,10.1482
63.1750,10.1482
63.1750,9.2482
Z" /> 
<path style="fill:#000000; fill-opacity:1.0000; 
stroke:#000000; stroke-width:0.0000; stroke-opacity:1; 
stroke-linecap:round; stroke-linejoin:round;fill-rule:evenodd;"
d="M 55.3850,14.4482
55.3850,15.1482
54.6850,15.1482
54.6850,14.4482
Z" /> 
<path style="fill:#000000; fill-opacity:1.0000; 
stroke:#000000; stroke-width:0.0000; stroke-opacity:1; 
stroke-linecap:round; stroke-linejoin:round;fill-rule:evenodd;"
d="M 55.3850,15.5482
55.3850,16.2482
54.6850,16.2482
54.6850,15.5482
Z" /> 
<path style="fill:#000000; fill-opacity:1.0000; 
stroke:#000000; stroke-width:0.0000; stroke-opacity:1; 
stroke-linecap:round; stroke-linejoin:round;fill-rule:evenodd;"
d="M 55.3850,16.6483
55.3850,17.3483
54.6850,17.3483
54.6850,16.6483
Z" /> 
<path style="fill:#000000; fill-opacity:1.0000; 
stroke:#000000; stroke-width:0.0000; stroke-opacity:1; 
stroke-linecap:round; stroke-linejoin:round;fill-rule:evenodd;"
d="M 56.4350,14.4482
56.4350,15.1482
55.7350,15.1482
55.7350,14.4482
Z" /> 
<path style="fill:#000000; fill-opacity:1.0000; 
stroke:#000000; stroke-width:0.0000; stroke-opacity:1; 
stroke-linecap:round; stroke-linejoin:round;fill-rule:evenodd;"
d="M 56.4350,15.5482
56.4350,16.2482
55.7350,16.2482
55.7350,15.5482
Z" /> 
<path style="fill:#000000; fill-opacity:1.0000; 
stroke:#000000; stroke-width:0.0000; stroke-opacity:1; 
stroke-linecap:round; stroke-linejoin:round;fill-rule:evenodd;"
d="M 56.4350,16.6483
56.4350,17.3483
55.7350,17.3483
55.7350,16.6483
Z" /> 
<path style="fill:#000000; fill-opacity:1.0000; 
stroke:#000000; stroke-width:0.0000; stroke-opacity:1; 
stroke-linecap:round; stroke-linejoin:round;fill-rule:evenodd;"
d="M 57.5850,14.4482
57.5850,15.1482
56.8850,15.1482
56.8850,14.4482
Z" /> 
<path style="fill:#000000; fill-opacity:1.0000; 
stroke:#000000; stroke-width:0.0000; stroke-opacity:1; 
stroke-linecap:round; stroke-linejoin:round;fill-rule:evenodd;"
d="M 57.5850,15.5482
57.5850,16.2482
56.8850,16.2482
56.8850,15.5482
Z" /> 
<path style="fill:#000000; fill-opacity:1.0000; 
stroke:#000000; stroke-width:0.0000; stroke-opacity:1; 
stroke-linecap:round; stroke-linejoin:round;fill-rule:evenodd;"
d="M 57.5850,16.6483
57.5850,17.3483
56.8850,17.3483
56.8850,16.6483
Z" /> 
</g>
<g >
</g>
<g style="fill:#000000; fill-opacity:1.0000; 
stroke:#000000; stroke-width:0.0000; stroke-opacity:1; 
stroke-linecap:round; stroke-linejoin:round;">
<path style="fill:#000000; fill-opacity:1.0000; 
stroke:#000000; stroke-width:0.0000; stroke-opacity:1; 
stroke-linecap:round; stroke-linejoin:round;fill-rule:evenodd;"
d="M 44.6975,18.8257
44.6794,18.9166
44.6279,18.9937
44.5509,19.0452
44.4600,19.0633
43.8600,19.0633
43.7691,19.0452
43.6921,18.9937
43.6406,18.9166
43.6225,18.8257
43.6225,18.3507
43.6406,18.2599
43.6921,18.1828
43.7691,18.1313
43.8600,18.1133
44.4600,18.1133
44.5509,18.1313
44.6279,18.1828
44.6794,18.2599
44.6975,18.3507
Z" /> 
<path style="fill:#000000; fill-opacity:1.0000; 
stroke:#000000; stroke-width:0.0000; stroke-opacity:1; 
stroke-linecap:round; stroke-linejoin:round;fill-rule:evenodd;"
d="M 42.9725,18.8257
42.9544,18.9166
42.9029,18.9937
42.8259,19.0452
42.7350,19.0633
42.1350,19.0633
42.0441,19.0452
41.9671,18.9937
41.9156,18.9166
41.8975,18.8257
41.8975,18.3507
41.9156,18.2599
41.9671,18.1828
42.0441,18.1313
42.1350,18.1133
42.7350,18.1133
42.8259,18.1313
42.9029,18.1828
42.9544,18.2599
42.9725,18.3507
Z" /> 
</g>
<g >
</g>
<g >
</g>
<g >
</g>
</g>
<g style="fill:#000000; fill-opacity:1.0000; 
stroke:#000000; stroke-width:0.0000; stroke-opacity:1; 
stroke-linecap:round; stroke-linejoin:round;">
</g>
<g style="fill:#000000; fill-opacity:0.0; 
stroke:#000000; stroke-width:0.1000; stroke-opacity:1; 
stroke-linecap:round; stroke-linejoin:round;">
<path d="M12.1350 35.0983 A1.2700 1.2700 0.0 0 0 13.4050 36.3683" />
<path d="M12.1350 35.0983
L12.1350 27.2242
" />
<path d="M78.1750 36.3683 A1.2700 1.2700 0.0 0 0 79.4450 35.0983" />
<path d="M12.1350 7.1582
L12.1350 15.0322
" />
<path d="M79.4450 7.1582 A1.2700 1.2700 0.0 0 0 78.1750 5.8882" />
<path d="M79.4450 7.1582
L79.4450 35.0983
" />
<path d="M12.1350 27.2242
L11.6800 27.1582
" />
<path d="M13.4050 5.8882
L78.1750 5.8882
" />
<path d="M13.4050 5.8882 A1.2700 1.2700 0.0 0 0 12.1350 7.1582" />
<path d="M12.1350 15.0322
L11.6800 15.0932
" />
<path d="M78.1750 36.3682
L13.4050 36.3682
" />
<path d="M0.2500 15.0932
L11.6800 15.0932
" />
<path d="M0.2500 15.0932
L0.2500 27.1582
" />
<path d="M0.2500 27.1582
L11.6800 27.1582
" />
<g >
</g>
<g >
</g>
<g >
</g>
<g >
</g>
<g >
</g>
<g >
</g>
<g >
</g>
<g >
</g>
<g >
</g>
<g >
</g>
<g >
</g>
<g >
</g>
<g >
</g>
<g >
</g>
<g >
</g>
<g >
</g>
<g >
</g>
<g >
</g>
<g >
</g>
<g >
</g>
<g >
</g>
<g >
</g>
</g> 
</svg>
